<?xml version="1.0" encoding="iso-8859-1"?>
<!-- Generator: Adobe Illustrator 19.0.0, SVG Export Plug-In . SVG Version: 6.00 Build 0)  -->
<svg version="1.1" id="Layer_1" xmlns="http://www.w3.org/2000/svg" xmlns:xlink="http://www.w3.org/1999/xlink" x="0px" y="0px"
	 viewBox="0 0 490.667 490.667" style="enable-background:new 0 0 490.667 490.667;" xml:space="preserve">
<g>
	<g>
		<path d="M480,149.333H10.667C4.779,149.333,0,154.112,0,160s4.779,10.667,10.667,10.667H480c5.888,0,10.667-4.779,10.667-10.667
			S485.888,149.333,480,149.333z"/>
	</g>
</g>
<g>
	<g>
		<path d="M480,320H10.667C4.779,320,0,324.779,0,330.667c0,5.888,4.779,10.667,10.667,10.667H480
			c5.888,0,10.667-4.779,10.667-10.667C490.667,324.779,485.888,320,480,320z"/>
	</g>
</g>
<g>
	<g>
		<path d="M160,0c-5.888,0-10.667,4.779-10.667,10.667V480c0,5.888,4.779,10.667,10.667,10.667s10.667-4.779,10.667-10.667V10.667
			C170.667,4.779,165.888,0,160,0z"/>
	</g>
</g>
<g>
	<g>
		<path d="M330.667,0C324.779,0,320,4.779,320,10.667V480c0,5.888,4.779,10.667,10.667,10.667c5.888,0,10.667-4.779,10.667-10.667
			V10.667C341.333,4.779,336.555,0,330.667,0z"/>
	</g>
</g>
<g>
	<g>
		<path d="M74.667,21.333c-29.419,0-53.333,23.936-53.333,53.333c0,29.397,23.915,53.333,53.333,53.333
			C104.085,128,128,104.064,128,74.667S104.085,21.333,74.667,21.333z M74.667,106.667c-17.643,0-32-14.357-32-32
			c0-17.643,14.357-32,32-32c17.643,0,32,14.357,32,32C106.667,92.309,92.309,106.667,74.667,106.667z"/>
	</g>
</g>
<g>
	<g>
		<path d="M416,192c-29.419,0-53.333,23.936-53.333,53.333s23.915,53.333,53.333,53.333s53.333-23.936,53.333-53.333
			S445.419,192,416,192z M416,277.333c-17.643,0-32-14.357-32-32s14.357-32,32-32s32,14.357,32,32S433.643,277.333,416,277.333z"/>
	</g>
</g>
<g>
	<g>
		<path d="M245.333,362.667C215.915,362.667,192,386.603,192,416s23.915,53.333,53.333,53.333s53.333-23.936,53.333-53.333
			S274.752,362.667,245.333,362.667z M245.333,448c-17.643,0-32-14.357-32-32s14.357-32,32-32s32,14.357,32,32
			S262.976,448,245.333,448z"/>
	</g>
</g>
<g>
	<g>
		<path d="M295.531,195.136c-4.16-4.16-10.923-4.16-15.083,0l-85.333,85.333c-4.16,4.16-4.16,10.923,0,15.083
			c2.091,2.069,4.821,3.115,7.552,3.115c2.731,0,5.461-1.045,7.531-3.115l85.333-85.333
			C299.691,206.059,299.691,199.296,295.531,195.136z"/>
	</g>
</g>
<g>
	<g>
		<path d="M295.531,280.469l-85.333-85.333c-4.16-4.16-10.923-4.16-15.083,0c-4.16,4.16-4.16,10.923,0,15.083l85.333,85.333
			c2.091,2.069,4.821,3.115,7.552,3.115c2.731,0,5.461-1.045,7.531-3.115C299.691,291.392,299.691,284.629,295.531,280.469z"/>
	</g>
</g>
<g>
	<g>
		<path d="M124.864,451.136l-85.333-85.333c-4.16-4.16-10.923-4.16-15.083,0c-4.16,4.16-4.16,10.923,0,15.083l85.333,85.333
			c2.091,2.069,4.821,3.115,7.552,3.115s5.461-1.045,7.531-3.115C129.024,462.059,129.024,455.296,124.864,451.136z"/>
	</g>
</g>
<g>
	<g>
		<path d="M124.864,365.803c-4.16-4.16-10.923-4.16-15.083,0l-85.333,85.333c-4.16,4.16-4.16,10.923,0,15.083
			c2.091,2.069,4.821,3.115,7.552,3.115c2.731,0,5.461-1.045,7.531-3.115l85.333-85.333
			C129.024,376.725,129.024,369.963,124.864,365.803z"/>
	</g>
</g>
<g>
	<g>
		<path d="M466.197,24.469c-4.16-4.16-10.923-4.16-15.083,0l-85.333,85.333c-4.16,4.16-4.16,10.923,0,15.083
			c2.091,2.069,4.821,3.115,7.552,3.115c2.731,0,5.461-1.045,7.531-3.115l85.333-85.333
			C470.357,35.392,470.357,28.629,466.197,24.469z"/>
	</g>
</g>
<g>
	<g>
		<path d="M466.197,109.803l-85.333-85.333c-4.16-4.16-10.923-4.16-15.083,0c-4.16,4.16-4.16,10.923,0,15.083l85.333,85.333
			c2.091,2.069,4.821,3.115,7.552,3.115c2.731,0,5.461-1.045,7.531-3.115C470.357,120.725,470.357,113.963,466.197,109.803z"/>
	</g>
</g>
<g>
</g>
<g>
</g>
<g>
</g>
<g>
</g>
<g>
</g>
<g>
</g>
<g>
</g>
<g>
</g>
<g>
</g>
<g>
</g>
<g>
</g>
<g>
</g>
<g>
</g>
<g>
</g>
<g>
</g>
</svg>
